<svg width="30" height="30" viewBox="0 0 30 30" fill="none" xmlns="http://www.w3.org/2000/svg">
<rect width="30" height="30" rx="10" fill="#545454"/>
<path d="M9 14.625L14.625 9L20.25 14.625L14.625 20.25L9 14.625Z" fill="#12F3AF"/>
<path d="M23.9034 8.06812C23.9034 7.51962 23.6844 6.99359 23.2947 6.60574C22.9051 6.21789 22.3765 6 21.8254 6C20.8973 6 20.1207 6.60974 19.8538 7.44557H10.0495C9.78264 6.60974 9.00608 6 8.07791 6C7.52681 6 6.99829 6.21789 6.60861 6.60574C6.21892 6.99359 6 7.51962 6 8.06812C6.00093 8.50651 6.14232 8.93318 6.40363 9.28609C6.66493 9.639 7.03253 9.89976 7.45297 10.0304V19.7886C7.03253 19.9193 6.66493 20.18 6.40363 20.5329C6.14232 20.8859 6.00093 21.3125 6 21.7509C6 22.2994 6.21892 22.8254 6.60861 23.2133C6.99829 23.6011 7.52681 23.819 8.07791 23.819C8.92048 23.819 9.64165 23.3179 9.96783 22.6007H19.9355C20.0992 22.9633 20.3646 23.2712 20.6999 23.4873C21.0352 23.7035 21.426 23.8187 21.8254 23.819C22.1075 23.945 22.4144 24.0066 22.7235 23.9994C23.0326 23.9922 23.3362 23.9164 23.612 23.7774C23.8879 23.6384 24.1291 23.4398 24.3179 23.1962C24.5068 22.9525 24.6385 22.6699 24.7036 22.3691C24.7686 22.0682 24.7653 21.7567 24.6938 21.4573C24.6223 21.1579 24.4846 20.8782 24.2905 20.6386C24.0965 20.399 23.8511 20.2056 23.5723 20.0725C23.2935 19.9394 22.9884 19.87 22.6792 19.8693V9.94914C23.0436 9.78623 23.3529 9.52206 23.5701 9.18838C23.7873 8.85469 23.903 8.46569 23.9034 8.06812ZM22.1197 19.7123C22.0229 19.6984 21.9261 19.6828 21.8254 19.6828C21.2743 19.6828 20.7458 19.9007 20.3561 20.2885C19.9665 20.6764 19.7475 21.2024 19.7475 21.7509C19.7475 21.8511 19.7632 21.9475 19.7772 22.0438H10.1262C10.1401 21.9475 10.1558 21.8511 10.1558 21.7509C10.1558 21.2024 9.93689 20.6764 9.54721 20.2885C9.15753 19.9007 8.629 19.6828 8.07791 19.6828C8.05553 19.6828 8.03483 19.6884 8.01245 19.6895V10.1296C8.03483 10.1301 8.05553 10.1362 8.07791 10.1362C8.629 10.1362 9.15753 9.91835 9.54721 9.5305C9.93689 9.14266 10.1558 8.61662 10.1558 8.06812C10.1558 8.04585 10.1497 8.02469 10.1491 8.00297H19.7542C19.7537 8.02524 19.7475 8.04585 19.7475 8.06812C19.7475 8.61662 19.9665 9.14266 20.3561 9.5305C20.7458 9.91835 21.2743 10.1362 21.8254 10.1362C21.9261 10.1362 22.0224 10.1207 22.1197 10.1067V19.7123Z" fill="#12F3AF"/>
</svg>
